<svg xmlns="http://www.w3.org/2000/svg" width="1800" height="1020" viewBox="0 0 1800 1020"><defs><linearGradient id="bgFade" x1="0%" y1="0%" x2="0%" y2="100%"><stop offset="0%" stop-color="#fbfdff"/><stop offset="100%" stop-color="#f4f7fb"/></linearGradient><filter id="softShadow" x="-20%" y="-20%" width="140%" height="140%"><feDropShadow dx="0" dy="14" stdDeviation="20" flood-color="#0f172a" flood-opacity="0.08"/></filter><filter id="cardShadow" x="-20%" y="-20%" width="140%" height="140%"><feDropShadow dx="0" dy="8" stdDeviation="12" flood-color="#0f172a" flood-opacity="0.10"/></filter><linearGradient id="geomGrad" x1="0%" y1="0%" x2="100%" y2="100%"><stop offset="0%" stop-color="#dbeafe"/><stop offset="100%" stop-color="#93c5fd"/></linearGradient><linearGradient id="phyloGrad" x1="0%" y1="0%" x2="100%" y2="100%"><stop offset="0%" stop-color="#dcfce7"/><stop offset="100%" stop-color="#86efac"/></linearGradient><linearGradient id="asrGrad" x1="0%" y1="0%" x2="100%" y2="100%"><stop offset="0%" stop-color="#ccfbf1"/><stop offset="100%" stop-color="#5eead4"/></linearGradient><linearGradient id="retrGrad" x1="0%" y1="0%" x2="100%" y2="100%"><stop offset="0%" stop-color="#fef3c7"/><stop offset="100%" stop-color="#fbbf24"/></linearGradient><linearGradient id="envGrad" x1="0%" y1="0%" x2="100%" y2="100%"><stop offset="0%" stop-color="#ffedd5"/><stop offset="100%" stop-color="#fb923c"/></linearGradient><linearGradient id="fieldTop" x1="0%" y1="0%" x2="100%" y2="100%"><stop offset="0%" stop-color="#d8b4fe"/><stop offset="36%" stop-color="#60a5fa"/><stop offset="68%" stop-color="#34d399"/><stop offset="100%" stop-color="#fbbf24"/></linearGradient><linearGradient id="fieldMid" x1="0%" y1="0%" x2="100%" y2="100%"><stop offset="0%" stop-color="#c4b5fd"/><stop offset="48%" stop-color="#38bdf8"/><stop offset="100%" stop-color="#fde68a"/></linearGradient><linearGradient id="fieldLow" x1="0%" y1="0%" x2="100%" y2="100%"><stop offset="0%" stop-color="#a5b4fc"/><stop offset="45%" stop-color="#22d3ee"/><stop offset="100%" stop-color="#99f6e4"/></linearGradient><radialGradient id="hotPink" cx="50%" cy="50%" r="50%"><stop offset="0%" stop-color="#fff7ed"/><stop offset="35%" stop-color="#f59e0b"/><stop offset="100%" stop-color="transparent"/></radialGradient><radialGradient id="hotCyan" cx="50%" cy="50%" r="50%"><stop offset="0%" stop-color="#ecfeff"/><stop offset="32%" stop-color="#22d3ee"/><stop offset="100%" stop-color="transparent"/></radialGradient><radialGradient id="hotRose" cx="50%" cy="50%" r="50%"><stop offset="0%" stop-color="#fff1f2"/><stop offset="34%" stop-color="#fb7185"/><stop offset="100%" stop-color="transparent"/></radialGradient><linearGradient id="decoderGrad" x1="0%" y1="0%" x2="100%" y2="100%"><stop offset="0%" stop-color="#fbcfe8"/><stop offset="100%" stop-color="#f472b6"/></linearGradient><linearGradient id="calibGrad" x1="0%" y1="0%" x2="100%" y2="100%"><stop offset="0%" stop-color="#e2e8f0"/><stop offset="100%" stop-color="#94a3b8"/></linearGradient></defs><rect x="0" y="0" width="1800" height="1020" rx="0" fill="url(#bgFade)" stroke="none" stroke-width="1" /><rect x="28" y="24" width="1744" height="972" rx="30" fill="#ffffff" stroke="#dbe3ee" stroke-width="1.2" filter="url(#softShadow)"/><text x="900" y="72" font-family="Helvetica, Arial, sans-serif" font-size="36" font-weight="700" fill="#111827" text-anchor="middle" >MARS-FIELD: A Unified Evidence-to-Sequence Network</text><text x="900" y="108" font-family="Helvetica, Arial, sans-serif" font-size="18" font-weight="400" fill="#475569" text-anchor="middle" >A multi-modal protein engineering framework that maps heterogeneous evidence into a shared residue energy field</text><rect x="56" y="150" width="480" height="820" rx="24" fill="#f8fbff" stroke="#d9e5f3" stroke-width="1.1" /><rect x="560" y="150" width="720" height="820" rx="24" fill="#fcfcff" stroke="#e2e8f0" stroke-width="1.1" /><rect x="1304" y="150" width="440" height="820" rx="24" fill="#fbfbfd" stroke="#e2e8f0" stroke-width="1.1" /><text x="76" y="188" font-family="Helvetica, Arial, sans-serif" font-size="19" font-weight="700" fill="#0f172a" text-anchor="start" >SECTION I  MULTI-MODAL EVIDENCE ENCODERS</text><text x="580" y="188" font-family="Helvetica, Arial, sans-serif" font-size="19" font-weight="700" fill="#0f172a" text-anchor="start" >SECTION II  SHARED RESIDUE ENERGY FIELD</text><text x="1324" y="188" font-family="Helvetica, Arial, sans-serif" font-size="19" font-weight="700" fill="#0f172a" text-anchor="start" >SECTION III  DECODING AND CALIBRATION</text><rect x="78" y="214" width="432" height="122" rx="22" fill="url(#geomGrad)" stroke="#ffffff" stroke-width="1.3" filter="url(#cardShadow)"/><rect x="92" y="228" width="98" height="94" rx="18" fill="#ffffff" stroke="#ffffff" stroke-width="0" opacity="0.78"/><line x1="106" y1="250" x2="142" y2="232" stroke="#1d4ed8" stroke-width="2" opacity="0.55" /><line x1="106" y1="250" x2="130" y2="284" stroke="#1d4ed8" stroke-width="2" opacity="0.55" /><line x1="142" y1="232" x2="174" y2="254" stroke="#1d4ed8" stroke-width="2" opacity="0.55" /><line x1="174" y1="254" x2="176" y2="290" stroke="#1d4ed8" stroke-width="2" opacity="0.55" /><line x1="130" y1="284" x2="176" y2="290" stroke="#1d4ed8" stroke-width="2" opacity="0.55" /><line x1="142" y1="232" x2="130" y2="284" stroke="#1d4ed8" stroke-width="2" opacity="0.55" /><circle cx="106" cy="250" r="6.5" fill="#ffffff" stroke="#1d4ed8" stroke-width="2.4" opacity="1" /><circle cx="142" cy="232" r="6.5" fill="#ffffff" stroke="#1d4ed8" stroke-width="2.4" opacity="1" /><circle cx="174" cy="254" r="6.5" fill="#ffffff" stroke="#1d4ed8" stroke-width="2.4" opacity="1" /><circle cx="130" cy="284" r="6.5" fill="#ffffff" stroke="#1d4ed8" stroke-width="2.4" opacity="1" /><circle cx="176" cy="290" r="6.5" fill="#ffffff" stroke="#1d4ed8" stroke-width="2.4" opacity="1" /><text x="206" y="254" font-family="Helvetica, Arial, sans-serif" font-size="22" font-weight="700" fill="#0f172a" text-anchor="start" >Geometric Encoder</text><text x="206" y="283" font-family="Helvetica, Arial, sans-serif" font-size="14.5" font-weight="400" fill="#1e293b"><tspan x="206" dy="0" font-size="14.5" font-weight="400" fill="#1e293b">• backbone graph</tspan><tspan x="206" dy="19" font-size="14.5" font-weight="400" fill="#1e293b">• local geometry</tspan><tspan x="206" dy="19" font-size="14.5" font-weight="400" fill="#1e293b">• design / protected masks</tspan><tspan x="206" dy="19" font-size="14.5" font-weight="400" fill="#1e293b">• backbone-conditioned compatibility</tspan></text><text x="206" y="320" font-family="Helvetica, Arial, sans-serif" font-size="13.5" font-weight="600" fill="#1d4ed8" text-anchor="start" >geometry-conditioned compatibility</text><rect x="78" y="354" width="432" height="122" rx="22" fill="url(#phyloGrad)" stroke="#ffffff" stroke-width="1.3" filter="url(#cardShadow)"/><rect x="92" y="368" width="98" height="94" rx="18" fill="#ffffff" stroke="#ffffff" stroke-width="0" opacity="0.78"/><line x1="106" y1="418" x2="140" y2="398" stroke="#15803d" stroke-width="3" opacity="1" /><line x1="106" y1="418" x2="140" y2="438" stroke="#15803d" stroke-width="3" opacity="1" /><line x1="140" y1="398" x2="176" y2="390" stroke="#15803d" stroke-width="2.3" opacity="1" /><line x1="140" y1="398" x2="176" y2="406" stroke="#15803d" stroke-width="2.3" opacity="1" /><line x1="140" y1="438" x2="176" y2="428" stroke="#15803d" stroke-width="2.3" opacity="1" /><line x1="140" y1="438" x2="176" y2="446" stroke="#15803d" stroke-width="2.3" opacity="1" /><circle cx="106" cy="418" r="5.2" fill="#ffffff" stroke="#15803d" stroke-width="2" opacity="1" /><circle cx="140" cy="398" r="5.2" fill="#ffffff" stroke="#15803d" stroke-width="2" opacity="1" /><circle cx="140" cy="438" r="5.2" fill="#ffffff" stroke="#15803d" stroke-width="2" opacity="1" /><circle cx="176" cy="390" r="5.2" fill="#ffffff" stroke="#15803d" stroke-width="2" opacity="1" /><circle cx="176" cy="406" r="5.2" fill="#ffffff" stroke="#15803d" stroke-width="2" opacity="1" /><circle cx="176" cy="428" r="5.2" fill="#ffffff" stroke="#15803d" stroke-width="2" opacity="1" /><circle cx="176" cy="446" r="5.2" fill="#ffffff" stroke="#15803d" stroke-width="2" opacity="1" /><text x="206" y="394" font-family="Helvetica, Arial, sans-serif" font-size="22" font-weight="700" fill="#0f172a" text-anchor="start" >Phylo-Sequence Encoder</text><text x="206" y="423" font-family="Helvetica, Arial, sans-serif" font-size="14.5" font-weight="400" fill="#1e293b"><tspan x="206" dy="0" font-size="14.5" font-weight="400" fill="#1e293b">• homolog MSA</tspan><tspan x="206" dy="19" font-size="14.5" font-weight="400" fill="#1e293b">• conservation</tspan><tspan x="206" dy="19" font-size="14.5" font-weight="400" fill="#1e293b">• family differential priors</tspan><tspan x="206" dy="19" font-size="14.5" font-weight="400" fill="#1e293b">• template-aware weighting</tspan></text><text x="206" y="460" font-family="Helvetica, Arial, sans-serif" font-size="13.5" font-weight="600" fill="#15803d" text-anchor="start" >phylogenetic adaptation statistics</text><rect x="78" y="494" width="432" height="122" rx="22" fill="url(#asrGrad)" stroke="#ffffff" stroke-width="1.3" filter="url(#cardShadow)"/><rect x="92" y="508" width="98" height="94" rx="18" fill="#ffffff" stroke="#ffffff" stroke-width="0" opacity="0.78"/><line x1="106" y1="558" x2="140" y2="538" stroke="#0f766e" stroke-width="3" opacity="1" /><line x1="106" y1="558" x2="140" y2="578" stroke="#0f766e" stroke-width="3" opacity="1" /><line x1="140" y1="538" x2="176" y2="530" stroke="#0f766e" stroke-width="2.3" opacity="1" /><line x1="140" y1="538" x2="176" y2="546" stroke="#0f766e" stroke-width="2.3" opacity="1" /><line x1="140" y1="578" x2="176" y2="568" stroke="#0f766e" stroke-width="2.3" opacity="1" /><line x1="140" y1="578" x2="176" y2="586" stroke="#0f766e" stroke-width="2.3" opacity="1" /><circle cx="106" cy="558" r="5.2" fill="#ffffff" stroke="#0f766e" stroke-width="2" opacity="1" /><circle cx="140" cy="538" r="5.2" fill="#ffffff" stroke="#0f766e" stroke-width="2" opacity="1" /><circle cx="140" cy="578" r="5.2" fill="#ffffff" stroke="#0f766e" stroke-width="2" opacity="1" /><circle cx="176" cy="530" r="5.2" fill="#ffffff" stroke="#0f766e" stroke-width="2" opacity="1" /><circle cx="176" cy="546" r="5.2" fill="#ffffff" stroke="#0f766e" stroke-width="2" opacity="1" /><circle cx="176" cy="568" r="5.2" fill="#ffffff" stroke="#0f766e" stroke-width="2" opacity="1" /><circle cx="176" cy="586" r="5.2" fill="#ffffff" stroke="#0f766e" stroke-width="2" opacity="1" /><text x="206" y="534" font-family="Helvetica, Arial, sans-serif" font-size="22" font-weight="700" fill="#0f172a" text-anchor="start" >Ancestral Lineage Encoder</text><text x="206" y="563" font-family="Helvetica, Arial, sans-serif" font-size="14.5" font-weight="400" fill="#1e293b"><tspan x="206" dy="0" font-size="14.5" font-weight="400" fill="#1e293b">• ASR posterior</tspan><tspan x="206" dy="19" font-size="14.5" font-weight="400" fill="#1e293b">• ancestor depth</tspan><tspan x="206" dy="19" font-size="14.5" font-weight="400" fill="#1e293b">• posterior entropy</tspan><tspan x="206" dy="19" font-size="14.5" font-weight="400" fill="#1e293b">• lineage confidence</tspan></text><text x="206" y="600" font-family="Helvetica, Arial, sans-serif" font-size="13.5" font-weight="600" fill="#0f766e" text-anchor="start" >ancestral posterior constraints</text><rect x="78" y="634" width="432" height="122" rx="22" fill="url(#retrGrad)" stroke="#ffffff" stroke-width="1.3" filter="url(#cardShadow)"/><rect x="92" y="648" width="98" height="94" rx="18" fill="#ffffff" stroke="#ffffff" stroke-width="0" opacity="0.78"/><polygon points="120,670 164,660 194,676 150,686" fill="none" stroke="#b45309" stroke-width="2.2" opacity="0.75" /><polygon points="120,684 164,674 194,690 150,700" fill="none" stroke="#b45309" stroke-width="2.2" opacity="0.75" /><polygon points="120,698 164,688 194,704 150,714" fill="none" stroke="#b45309" stroke-width="2.2" opacity="0.75" /><text x="206" y="674" font-family="Helvetica, Arial, sans-serif" font-size="22" font-weight="700" fill="#0f172a" text-anchor="start" >Retrieval Memory Encoder</text><text x="206" y="703" font-family="Helvetica, Arial, sans-serif" font-size="14.5" font-weight="400" fill="#1e293b"><tspan x="206" dy="0" font-size="14.5" font-weight="400" fill="#1e293b">• motif atlas</tspan><tspan x="206" dy="19" font-size="14.5" font-weight="400" fill="#1e293b">• prototype memory</tspan><tspan x="206" dy="19" font-size="14.5" font-weight="400" fill="#1e293b">• structural motif retrieval</tspan><tspan x="206" dy="19" font-size="14.5" font-weight="400" fill="#1e293b">• residue-support prototypes</tspan></text><text x="206" y="740" font-family="Helvetica, Arial, sans-serif" font-size="13.5" font-weight="600" fill="#b45309" text-anchor="start" >motif memory retrieval</text><rect x="78" y="774" width="432" height="122" rx="22" fill="url(#envGrad)" stroke="#ffffff" stroke-width="1.3" filter="url(#cardShadow)"/><rect x="92" y="788" width="98" height="94" rx="18" fill="#ffffff" stroke="#ffffff" stroke-width="0" opacity="0.78"/><path d="M 124 814 C 112 830 114 848 124 858" fill="none" stroke="#c2410c" stroke-width="3" opacity="1" /><path d="M 124 814 C 136 830 134 848 124 858" fill="none" stroke="#c2410c" stroke-width="3" opacity="1" /><line x1="124" y1="828" x2="124" y2="850" stroke="#c2410c" stroke-width="3" opacity="1" /><rect x="148" y="820" width="40" height="30" rx="6" fill="none" stroke="#c2410c" stroke-width="2.2" /><line x1="148" y1="831" x2="188" y2="831" stroke="#c2410c" stroke-width="1.8" opacity="0.6" /><line x1="148" y1="841" x2="188" y2="841" stroke="#c2410c" stroke-width="1.8" opacity="0.6" /><text x="206" y="814" font-family="Helvetica, Arial, sans-serif" font-size="22" font-weight="700" fill="#0f172a" text-anchor="start" >Environment Hypernetwork</text><text x="206" y="843" font-family="Helvetica, Arial, sans-serif" font-size="14.5" font-weight="400" fill="#1e293b"><tspan x="206" dy="0" font-size="14.5" font-weight="400" fill="#1e293b">• oxidation</tspan><tspan x="206" dy="19" font-size="14.5" font-weight="400" fill="#1e293b">• low temperature</tspan><tspan x="206" dy="19" font-size="14.5" font-weight="400" fill="#1e293b">• dry-rehydration</tspan><tspan x="206" dy="19" font-size="14.5" font-weight="400" fill="#1e293b">• perchlorate / ionic stress</tspan></text><text x="206" y="880" font-family="Helvetica, Arial, sans-serif" font-size="13.5" font-weight="600" fill="#c2410c" text-anchor="start" >environment-conditioned modulation</text><text x="596" y="225" font-family="Helvetica, Arial, sans-serif" font-size="26" font-weight="700" fill="#111827" text-anchor="start" >Unified residue decision manifold</text><text x="596" y="253" font-family="Helvetica, Arial, sans-serif" font-size="16" font-weight="400" fill="#475569" text-anchor="start" >Evidence streams project into site-wise residue energies and pairwise coupling structure</text><polygon points="648,544 1118,544 1250,714 780,714" fill="url(#fieldLow)" stroke="#8b5cf6" stroke-width="1.6" opacity="0.65" /><polygon points="672,442 1142,442 1274,612 804,612" fill="url(#fieldMid)" stroke="#7c3aed" stroke-width="1.6" opacity="0.78" /><polygon points="698,334 1168,334 1300,504 830,504" fill="url(#fieldTop)" stroke="#7c3aed" stroke-width="1.6" opacity="0.94" /><ellipse cx="841" cy="385" rx="74" ry="44" fill="url(#hotCyan)" opacity="0.72"/><ellipse cx="1002.22" cy="429.2" rx="88" ry="50" fill="url(#hotPink)" opacity="0.82"/><ellipse cx="1098.92" cy="378.2" rx="66" ry="42" fill="url(#hotRose)" opacity="0.76"/><ellipse cx="1218.68" cy="459.8" rx="50" ry="34" fill="url(#hotCyan)" opacity="0.78"/><ellipse cx="857.36" cy="466.6" rx="52" ry="34" fill="url(#hotPink)" opacity="0.64"/><ellipse cx="814.68" cy="516.8" rx="56" ry="34" fill="url(#hotPink)" opacity="0.58"/><ellipse cx="977.44" cy="496.4" rx="50" ry="32" fill="url(#hotCyan)" opacity="0.54"/><ellipse cx="1117.64" cy="555.9" rx="60" ry="38" fill="url(#hotRose)" opacity="0.52"/><ellipse cx="869.36" cy="659.6" rx="48" ry="28" fill="url(#hotRose)" opacity="0.42"/><ellipse cx="979" cy="595" rx="44" ry="26" fill="url(#hotCyan)" opacity="0.38"/><path d="M 836.24 439.4 Q 863.6 402 977.4 427.5 Q 1020.18 391.8 1151.46 415.6 " fill="none" stroke="#ffffff" stroke-width="1.2" opacity="0.35" /><path d="M 871.46 466.6 Q 925.54 439.4 1015.26 458.1 Q 1075.36 432.6 1172.42 454.7 " fill="none" stroke="#ffffff" stroke-width="1.2" opacity="0.35" /><path d="M 772.56 381.6 Q 834.56 364.6 931.78 374.8 Q 999.22 352.7 1113.76 373.1 " fill="none" stroke="#ffffff" stroke-width="1.2" opacity="0.35" /><path d="M 810.24 547.4 Q 837.6 510 951.4 535.5 Q 994.18 499.8 1125.46 523.6 " fill="none" stroke="#e0f2fe" stroke-width="1.2" opacity="0.35" /><path d="M 845.46 574.6 Q 899.54 547.4 989.26 566.1 Q 1049.36 540.6 1146.42 562.7 " fill="none" stroke="#e0f2fe" stroke-width="1.2" opacity="0.35" /><path d="M 746.56 489.6 Q 808.56 472.6 905.78 482.8 Q 973.22 460.7 1087.76 481.1 " fill="none" stroke="#e0f2fe" stroke-width="1.2" opacity="0.35" /><path d="M 786.24 649.4 Q 813.6 612 927.4 637.5 Q 970.18 601.8 1101.46 625.6 " fill="none" stroke="#dbeafe" stroke-width="1.2" opacity="0.35" /><path d="M 821.46 676.6 Q 875.54 649.4 965.26 668.1 Q 1025.36 642.6 1122.42 664.7 " fill="none" stroke="#dbeafe" stroke-width="1.2" opacity="0.35" /><path d="M 722.56 591.6 Q 784.56 574.6 881.78 584.8 Q 949.22 562.7 1063.76 583.1 " fill="none" stroke="#dbeafe" stroke-width="1.2" opacity="0.35" /><path d="M 824 452 C 928 304 1073 316 1053 429" fill="none" stroke="#ec4899" stroke-width="3.2" opacity="0.72" /><path d="M 1053 429 C 1158 354 1266 420 1208 549" fill="none" stroke="#8b5cf6" stroke-width="3.2" opacity="0.72" /><circle cx="824" cy="452" r="8" fill="#ffffff" stroke="#1e293b" stroke-width="2.1" opacity="1" /><circle cx="1053" cy="429" r="8" fill="#ffffff" stroke="#1e293b" stroke-width="2.1" opacity="1" /><circle cx="1208" cy="549" r="8" fill="#ffffff" stroke="#1e293b" stroke-width="2.1" opacity="1" /><text x="710" y="720" font-family="Helvetica, Arial, sans-serif" font-size="19" font-weight="700" fill="#111827" text-anchor="start" >U(i, a)  site-wise residue energies</text><text x="710" y="748" font-family="Helvetica, Arial, sans-serif" font-size="19" font-weight="700" fill="#111827" text-anchor="start" >C(i, j, a, b)  pairwise coupling energies</text><rect x="700" y="776" width="540" height="78" rx="16" fill="#ffffff" stroke="#dbe3ee" stroke-width="1.2" /><text x="728" y="808" font-family="Helvetica, Arial, sans-serif" font-size="16" font-weight="700" fill="#334155" text-anchor="start" >Energy objective</text><text x="728" y="840" font-family="Helvetica, Arial, sans-serif" font-size="26" font-weight="700" fill="#0f172a" text-anchor="start" >E(x) = Σ_i U(i, x_i) + Σ_(i,j∈N) C(i, j, x_i, x_j)</text><path d="M 512 262 C 570 262 605 381 700 381 L 700 407 C 605 407 570 288 512 288 Z" fill="#60a5fa" stroke="none" stroke-width="1" opacity="0.72" /><text x="560" y="263" font-family="Helvetica, Arial, sans-serif" font-size="13.5" font-weight="700" fill="#1d4ed8" text-anchor="start" >geometry flow</text><path d="M 512 402 C 570 402 605 447 710 447 L 710 473 C 605 473 570 428 512 428 Z" fill="#4ade80" stroke="none" stroke-width="1" opacity="0.72" /><text x="560" y="403" font-family="Helvetica, Arial, sans-serif" font-size="13.5" font-weight="700" fill="#15803d" text-anchor="start" >phylogeny flow</text><path d="M 512 542 C 570 542 605 509 722 509 L 722 535 C 605 535 570 568 512 568 Z" fill="#2dd4bf" stroke="none" stroke-width="1" opacity="0.72" /><text x="575" y="543" font-family="Helvetica, Arial, sans-serif" font-size="13.5" font-weight="700" fill="#0f766e" text-anchor="start" >ancestral flow</text><path d="M 512 683 C 570 683 605 568 740 568 L 740 592 C 605 592 570 707 512 707 Z" fill="#f59e0b" stroke="none" stroke-width="1" opacity="0.72" /><text x="575" y="703" font-family="Helvetica, Arial, sans-serif" font-size="13.5" font-weight="700" fill="#b45309" text-anchor="start" >retrieval flow</text><path d="M 512 823 C 570 823 605 634 768 634 L 768 658 C 605 658 570 847 512 847 Z" fill="#fb923c" stroke="none" stroke-width="1" opacity="0.72" /><text x="575" y="843" font-family="Helvetica, Arial, sans-serif" font-size="13.5" font-weight="700" fill="#c2410c" text-anchor="start" >environment flow</text><text x="950" y="316" font-family="Helvetica, Arial, sans-serif" font-size="14" font-weight="600" fill="#b45309" text-anchor="start" >retrieval introduces residue-support peaks</text><text x="1114" y="368" font-family="Helvetica, Arial, sans-serif" font-size="14" font-weight="600" fill="#c2410c" text-anchor="start" >environment modulates local energy basins</text><text x="660" y="398" font-family="Helvetica, Arial, sans-serif" font-size="14" font-weight="600" fill="#0f766e" text-anchor="start" >ancestral and phylogenetic priors set the energy background</text><rect x="1330" y="214" width="388" height="350" rx="22" fill="#fff8fb" stroke="#f3d4e6" stroke-width="1.1" filter="url(#cardShadow)"/><text x="1352" y="248" font-family="Helvetica, Arial, sans-serif" font-size="24" font-weight="700" fill="#111827" text-anchor="start" >Structured Decoder</text><text x="1352" y="276" font-family="Helvetica, Arial, sans-serif" font-size="15.5" font-weight="400" fill="#475569" text-anchor="start" >Field-to-sequence search under explicit engineering constraints</text><rect x="1358" y="326" width="66" height="84" rx="10" fill="#ffffff" stroke="#db2777" stroke-width="1.8" opacity="0.9"/><rect x="1368" y="333" width="66" height="84" rx="10" fill="#ffffff" stroke="#db2777" stroke-width="1.8" opacity="0.9"/><rect x="1378" y="340" width="66" height="84" rx="10" fill="#ffffff" stroke="#db2777" stroke-width="1.8" opacity="0.9"/><rect x="1388" y="347" width="66" height="84" rx="10" fill="#ffffff" stroke="#db2777" stroke-width="1.8" opacity="0.9"/><rect x="1398" y="354" width="66" height="84" rx="10" fill="#ffffff" stroke="#db2777" stroke-width="1.8" opacity="0.9"/><text x="1462" y="390" font-family="Helvetica, Arial, sans-serif" font-size="14" font-weight="600" fill="#9d174d" text-anchor="start" >constrained beam search</text><text x="1462" y="416" font-family="Helvetica, Arial, sans-serif" font-size="14" font-weight="600" fill="#9d174d" text-anchor="start" >energy-guided search</text><text x="1462" y="442" font-family="Helvetica, Arial, sans-serif" font-size="14" font-weight="600" fill="#9d174d" text-anchor="start" >pairwise compatibility aware</text><rect x="1578" y="324" width="118" height="34" rx="12" fill="#ffffff" stroke="#e2e8f0" stroke-width="1" /><circle cx="1596" cy="341" r="6" fill="#2563eb" stroke="none" stroke-width="1" opacity="1" /><text x="1610" y="346" font-family="Helvetica, Arial, sans-serif" font-size="12.5" font-weight="400" fill="#1e293b" text-anchor="start" >R249Q;A251S;M298…</text><rect x="1578" y="378" width="118" height="34" rx="12" fill="#ffffff" stroke="#e2e8f0" stroke-width="1" /><circle cx="1596" cy="395" r="6" fill="#14b8a6" stroke="none" stroke-width="1" opacity="1" /><text x="1610" y="400" font-family="Helvetica, Arial, sans-serif" font-size="12.5" font-weight="400" fill="#1e293b" text-anchor="start" >H153N;M155L;W229…</text><rect x="1578" y="432" width="118" height="34" rx="12" fill="#ffffff" stroke="#e2e8f0" stroke-width="1" /><circle cx="1596" cy="449" r="6" fill="#22c55e" stroke="none" stroke-width="1" opacity="1" /><text x="1610" y="454" font-family="Helvetica, Arial, sans-serif" font-size="12.5" font-weight="400" fill="#1e293b" text-anchor="start" >Y3F;Y40F;Y41F;Y1…</text><rect x="1578" y="486" width="118" height="34" rx="12" fill="#ffffff" stroke="#e2e8f0" stroke-width="1" /><circle cx="1596" cy="503" r="6" fill="#f97316" stroke="none" stroke-width="1" opacity="1" /><text x="1610" y="508" font-family="Helvetica, Arial, sans-serif" font-size="12.5" font-weight="400" fill="#1e293b" text-anchor="start" >W155F;W156F;M167…</text><rect x="1330" y="590" width="388" height="300" rx="22" fill="#f9fafb" stroke="#e2e8f0" stroke-width="1.1" filter="url(#cardShadow)"/><text x="1352" y="624" font-family="Helvetica, Arial, sans-serif" font-size="24" font-weight="700" fill="#111827" text-anchor="start" >Calibrated Selector</text><text x="1352" y="652" font-family="Helvetica, Arial, sans-serif" font-size="15.5" font-weight="400" fill="#475569" text-anchor="start" >Normalize per target, enforce prior consistency, and suppress unsafe winners</text><rect x="1358" y="700" width="160" height="80" rx="14" fill="#ffffff" stroke="#e2e8f0" stroke-width="1" /><text x="1370" y="722" font-family="Helvetica, Arial, sans-serif" font-size="13" font-weight="700" fill="#334155" text-anchor="start" >candidate score</text><path d="M 1374 768 L 1374 762 L 1384 754 L 1394 742 L 1404 730 L 1414 738 L 1424 748 L 1434 758 L 1444 763 L 1444 768" fill="none" stroke="#2563eb" stroke-width="2.5" opacity="1" /><line x1="1374" y1="768" x2="1448" y2="768" stroke="#94a3b8" stroke-width="1.4" opacity="1" /><rect x="1540" y="700" width="160" height="80" rx="14" fill="#ffffff" stroke="#e2e8f0" stroke-width="1" /><text x="1552" y="722" font-family="Helvetica, Arial, sans-serif" font-size="13" font-weight="700" fill="#0f766e" text-anchor="start" >decoder calibration</text><path d="M 1556 768 L 1556 762 L 1566 754 L 1576 742 L 1586 730 L 1596 738 L 1606 748 L 1616 758 L 1626 763 L 1626 768" fill="none" stroke="#14b8a6" stroke-width="2.5" opacity="1" /><line x1="1556" y1="768" x2="1630" y2="768" stroke="#94a3b8" stroke-width="1.4" opacity="1" /><rect x="1358" y="802" width="160" height="80" rx="14" fill="#ffffff" stroke="#e2e8f0" stroke-width="1" /><text x="1370" y="824" font-family="Helvetica, Arial, sans-serif" font-size="13" font-weight="700" fill="#b45309" text-anchor="start" >engineering prior</text><path d="M 1374 870 L 1374 864 L 1384 856 L 1394 844 L 1404 832 L 1414 840 L 1424 850 L 1434 860 L 1444 865 L 1444 870" fill="none" stroke="#f59e0b" stroke-width="2.5" opacity="1" /><line x1="1374" y1="870" x2="1448" y2="870" stroke="#94a3b8" stroke-width="1.4" opacity="1" /><rect x="1540" y="802" width="160" height="80" rx="14" fill="#ffffff" stroke="#e2e8f0" stroke-width="1" /><text x="1552" y="824" font-family="Helvetica, Arial, sans-serif" font-size="13" font-weight="700" fill="#7c3aed" text-anchor="start" >final shortlist</text><path d="M 1556 870 L 1556 864 L 1566 856 L 1576 844 L 1586 832 L 1596 840 L 1606 850 L 1616 860 L 1626 865 L 1626 870" fill="none" stroke="#8b5cf6" stroke-width="2.5" opacity="1" /><line x1="1556" y1="870" x2="1630" y2="870" stroke="#94a3b8" stroke-width="1.4" opacity="1" /><text x="1356" y="884" font-family="Helvetica, Arial, sans-serif" font-size="14.5" font-weight="600" fill="#475569" text-anchor="start" >target-wise normalization  •  safety gating  •  uncertainty-aware shortlist</text><path d="M 1288 500 C 1320 500 1326 420 1330 420" fill="none" stroke="#be185d" stroke-width="4.4" opacity="0.82" /><path d="M 1288 720 C 1320 720 1326 740 1330 740" fill="none" stroke="#475569" stroke-width="4.4" opacity="0.72" /><text x="1266" y="486" font-family="Helvetica, Arial, sans-serif" font-size="14" font-weight="700" fill="#be185d" text-anchor="end" >decode under engineering constraints</text><text x="1266" y="706" font-family="Helvetica, Arial, sans-serif" font-size="14" font-weight="700" fill="#475569" text-anchor="end" >calibrate before final ranking</text><rect x="80" y="920" width="1638" height="38" rx="16" fill="#f8fafc" stroke="#e2e8f0" stroke-width="1" /><text x="104" y="945" font-family="Helvetica, Arial, sans-serif" font-size="15" font-weight="400" fill="#334155" text-anchor="start" >Current implementation already includes motif-atlas retrieval, explicit ancestral fields, shared residue field construction, pairwise engineering energy, structured decoding, calibrated selection, unified benchmark outputs, and visualization bundles.</text></svg>